<svg width="182" height="130" viewBox="0 0 182 130" fill="none" xmlns="http://www.w3.org/2000/svg">
<g id="undraw_Destination_re_sr74 1">
<path id="Vector" d="M90.3479 0H49.7984C46.6175 0.00361196 43.5679 1.27329 41.3187 3.53049C39.0694 5.78768 37.8042 8.84806 37.8006 12.0402V15.7184C37.7174 15.6954 37.63 15.6922 37.5453 15.7089C37.4606 15.7256 37.3809 15.7619 37.3126 15.8148C37.2443 15.8677 37.1891 15.9359 37.1515 16.0138C37.1139 16.0918 37.0949 16.1775 37.096 16.2641V19.0927C37.0949 19.1793 37.1139 19.265 37.1515 19.3429C37.1891 19.4209 37.2443 19.489 37.3126 19.542C37.3809 19.5949 37.4606 19.6312 37.5453 19.6479C37.63 19.6646 37.7174 19.6614 37.8006 19.6384V23.9212C37.7174 23.8982 37.63 23.8949 37.5453 23.9116C37.4606 23.9284 37.3809 23.9646 37.3126 24.0175C37.2443 24.0705 37.1891 24.1386 37.1515 24.2166C37.1139 24.2946 37.0949 24.3803 37.096 24.4669V31.5382C37.0949 31.6249 37.1139 31.7105 37.1515 31.7885C37.1891 31.8665 37.2443 31.9346 37.3126 31.9876C37.3809 32.0405 37.4606 32.0767 37.5453 32.0935C37.63 32.1102 37.7174 32.1069 37.8006 32.0839V34.6696C37.7174 34.6466 37.63 34.6434 37.5453 34.6601C37.4606 34.6768 37.3809 34.7131 37.3126 34.766C37.2443 34.8189 37.1891 34.8871 37.1515 34.965C37.1139 35.043 37.0949 35.1287 37.096 35.2153V42.2867C37.0949 42.3733 37.1139 42.459 37.1515 42.537C37.1891 42.615 37.2443 42.6831 37.3126 42.736C37.3809 42.7889 37.4606 42.8252 37.5453 42.8419C37.63 42.8587 37.7174 42.8554 37.8006 42.8324V117.507C37.8042 120.699 39.0694 123.759 41.3187 126.017C43.5679 128.274 46.6175 129.543 49.7984 129.547H90.3479C93.5288 129.543 96.5783 128.274 98.8276 126.017C101.077 123.759 102.342 120.699 102.346 117.507V12.0402C102.342 8.84806 101.077 5.78768 98.8276 3.53049C96.5783 1.27329 93.5288 0.00361196 90.3479 0ZM99.8089 117.507C99.806 120.024 98.8083 122.437 97.0347 124.217C95.261 125.997 92.8562 126.999 90.3479 127.001H49.7984C47.29 126.999 44.8852 125.997 43.1115 124.217C41.3379 122.437 40.3402 120.024 40.3373 117.507V12.0402C40.3402 9.52299 41.3379 7.10967 43.1115 5.32972C44.8852 3.54977 47.29 2.54854 49.7984 2.54569H90.3479C92.8562 2.54854 95.261 3.54977 97.0347 5.32972C98.8083 7.10967 99.806 9.52298 99.8089 12.0402V117.507Z" fill="#3F3D56"/>
<path id="Vector_2" d="M90.3479 128.415H49.7984C46.9164 128.412 44.1534 127.261 42.1155 125.216C40.0777 123.171 38.9314 120.399 38.9281 117.506V12.0397C38.9314 9.14747 40.0777 6.37468 42.1155 4.3296C44.1534 2.28451 46.9164 1.13414 49.7984 1.13086H90.3479C93.2299 1.13414 95.9929 2.28451 98.0307 4.3296C100.069 6.37468 101.215 9.14747 101.218 12.0397V117.506C101.215 120.399 100.069 123.171 98.0307 125.216C95.9929 127.261 93.2299 128.412 90.3479 128.415Z" fill="#E6E6E6"/>
<path id="Vector_3" d="M91.35 126.718H48.7964C46.8527 126.716 44.9891 125.94 43.6147 124.561C42.2402 123.181 41.4671 121.311 41.4648 119.361V10.1856C41.467 8.23499 42.2402 6.36486 43.6146 4.98554C44.9891 3.60622 46.8526 2.83034 48.7964 2.82813H54.3459C54.6671 2.8285 54.9751 2.95674 55.2023 3.18472C55.4295 3.4127 55.5573 3.7218 55.5576 4.04421C55.5587 4.99666 55.9362 5.90979 56.6073 6.58328C57.2784 7.25676 58.1883 7.63559 59.1374 7.63665H80.4453C81.3943 7.63559 82.3043 7.25676 82.9754 6.58328C83.6465 5.90979 84.024 4.99666 84.025 4.0442C84.0254 3.7218 84.1532 3.4127 84.3804 3.18472C84.6075 2.95674 84.9155 2.8285 85.2368 2.82812H91.35C93.2937 2.83034 95.1573 3.60621 96.5317 4.98553C97.9062 6.36485 98.6793 8.23498 98.6815 10.1856V119.361C98.6793 121.311 97.9062 123.181 96.5317 124.561C95.1573 125.94 93.2938 126.716 91.35 126.718Z" fill="white"/>
<path id="Vector_4" d="M71.9052 5.30329H66.8318C66.6823 5.30329 66.5389 5.24369 66.4332 5.1376C66.3275 5.03151 66.2681 4.88762 66.2681 4.73758C66.2681 4.58755 66.3275 4.44366 66.4332 4.33757C66.5389 4.23148 66.6823 4.17188 66.8318 4.17188H71.9052C72.0547 4.17188 72.1981 4.23148 72.3038 4.33757C72.4095 4.44366 72.4689 4.58755 72.4689 4.73758C72.4689 4.88762 72.4095 5.03151 72.3038 5.1376C72.1981 5.24369 72.0547 5.30329 71.9052 5.30329Z" fill="white"/>
<path id="Vector_5" d="M75.4285 5.16239C75.5841 5.16239 75.7103 5.03575 75.7103 4.87953C75.7103 4.72332 75.5841 4.59668 75.4285 4.59668C75.2728 4.59668 75.1466 4.72332 75.1466 4.87953C75.1466 5.03575 75.2728 5.16239 75.4285 5.16239Z" fill="white"/>
<path id="Vector_6" d="M100.052 24.9258H40.038V25.5704H100.052V24.9258Z" fill="#E6E6E6"/>
<path id="Vector_7" d="M100.052 37.8184H40.038V38.463H100.052V37.8184Z" fill="#E6E6E6"/>
<path id="Vector_8" d="M100.052 64.4629H40.038V65.1075H100.052V64.4629Z" fill="#E6E6E6"/>
<path id="Vector_9" d="M100.052 91.1074H40.038V91.7521H100.052V91.1074Z" fill="#E6E6E6"/>
<path id="Vector_10" d="M100.052 111.95H40.038V112.595H100.052V111.95Z" fill="#E6E6E6"/>
<path id="Vector_11" d="M83.6218 25.248H82.9795V64.7852H83.6218V25.248Z" fill="#E6E6E6"/>
<path id="Vector_12" d="M53.5779 64.7734H52.9355V112.273H53.5779V64.7734Z" fill="#E6E6E6"/>
<path id="Vector_13" d="M98.6815 77.8027H53.2567V78.4474H98.6815V77.8027Z" fill="#E6E6E6"/>
<path id="Vector_14" d="M83.6909 112.272H83.0486V126.718H83.6909V112.272Z" fill="#E6E6E6"/>
<path id="Vector_15" d="M83.1936 51.4043H41.3578V52.0489H83.1936V51.4043Z" fill="#E6E6E6"/>
<path id="Vector_16" d="M50.0947 2.42105L49.5021 2.66992L58.9692 25.3722L59.5618 25.1233L50.0947 2.42105Z" fill="#E6E6E6"/>
<path id="Vector_17" d="M79.2519 7.63672H78.6095V25.2476H79.2519V7.63672Z" fill="#E6E6E6"/>
<path id="Vector_18" d="M95.8155 35.0253C95.8155 40.8012 86.9169 54.2601 84.3164 58.07C84.238 58.1852 84.1327 58.2794 84.0097 58.3445C83.8868 58.4096 83.7499 58.4437 83.6108 58.4437C83.4718 58.4437 83.3349 58.4096 83.2119 58.3445C83.089 58.2794 82.9837 58.1852 82.9052 58.07C80.3047 54.2601 71.4061 40.8012 71.4061 35.0253C71.4061 31.7769 72.692 28.6616 74.9808 26.3647C77.2696 24.0677 80.3739 22.7773 83.6108 22.7773C86.8477 22.7773 89.952 24.0677 92.2409 26.3647C94.5297 28.6616 95.8155 31.7769 95.8155 35.0253Z" fill="#F9A826"/>
<path id="Vector_19" d="M83.6109 40.3964C87.0403 40.3964 89.8203 37.6065 89.8203 34.165C89.8203 30.7235 87.0403 27.9336 83.6109 27.9336C80.1815 27.9336 77.4015 30.7235 77.4015 34.165C77.4015 37.6065 80.1815 40.3964 83.6109 40.3964Z" fill="white"/>
<path id="Vector_20" d="M83.204 64.9703L59.6884 112.121L60.2628 112.41L83.7784 65.2588L83.204 64.9703Z" fill="#E6E6E6"/>
<path id="Vector_21" d="M83.6108 67.4715C85.1481 67.4715 86.3943 66.2209 86.3943 64.6782C86.3943 63.1354 85.1481 61.8848 83.6108 61.8848C82.0735 61.8848 80.8273 63.1354 80.8273 64.6782C80.8273 66.2209 82.0735 67.4715 83.6108 67.4715Z" fill="#F9A826"/>
<path id="Vector_22" d="M122.799 34.1358C121.636 35.6906 116.532 37.5099 115.065 38.0083C115.021 38.0234 114.973 38.0274 114.927 38.0201C114.881 38.0127 114.837 37.9941 114.8 37.9659C114.762 37.9377 114.732 37.9008 114.712 37.8583C114.692 37.8159 114.683 37.7692 114.685 37.7223C114.752 36.1696 115.065 30.7429 116.228 29.1881C116.882 28.3137 117.855 27.7357 118.933 27.5814C120.012 27.427 121.107 27.7089 121.978 28.365C122.85 29.0211 123.426 29.9977 123.579 31.0799C123.733 32.1622 123.452 33.2614 122.799 34.1358Z" fill="#F2F2F2"/>
<path id="Vector_23" d="M119.686 33.5272C120.84 33.5272 121.776 32.5883 121.776 31.4301C121.776 30.2719 120.84 29.333 119.686 29.333C118.532 29.333 117.596 30.2719 117.596 31.4301C117.596 32.5883 118.532 33.5272 119.686 33.5272Z" fill="white"/>
<path id="Vector_24" d="M113.545 40.5843C114.062 40.5843 114.482 40.1634 114.482 39.6442C114.482 39.125 114.062 38.7041 113.545 38.7041C113.028 38.7041 112.608 39.125 112.608 39.6442C112.608 40.1634 113.028 40.5843 113.545 40.5843Z" fill="#F2F2F2"/>
<path id="Vector_25" d="M20.9144 76.7838C22.625 79.4066 22.5704 88.1723 22.5179 90.6779C22.5163 90.7536 22.4964 90.8278 22.4599 90.8941C22.4233 90.9603 22.3712 91.0166 22.3081 91.0581C22.245 91.0995 22.1727 91.1249 22.0976 91.132C22.0225 91.1391 21.9468 91.1278 21.8771 91.0989C19.5678 90.1445 11.541 86.6871 9.83038 84.0643C9.35336 83.334 9.02441 82.5164 8.86235 81.6585C8.70028 80.8005 8.70827 79.9189 8.88586 79.064C9.06344 78.2091 9.40714 77.3977 9.89732 76.6762C10.3875 75.9546 11.0145 75.3371 11.7426 74.8589C12.4707 74.3806 13.2856 74.051 14.1406 73.8889C14.9957 73.7269 15.8742 73.7354 16.726 73.9142C17.5777 74.093 18.386 74.4384 19.1047 74.9308C19.8234 75.4232 20.4383 76.0528 20.9144 76.7838Z" fill="#F2F2F2"/>
<path id="Vector_26" d="M15.1178 83.416C16.979 83.416 18.4877 81.9019 18.4877 80.0342C18.4877 78.1664 16.979 76.6523 15.1178 76.6523C13.2567 76.6523 11.7479 78.1664 11.7479 80.0342C11.7479 81.9019 13.2567 83.416 15.1178 83.416Z" fill="white"/>
<path id="Vector_27" d="M24.1546 95.405C24.9889 95.405 25.6652 94.7263 25.6652 93.889C25.6652 93.0518 24.9889 92.373 24.1546 92.373C23.3203 92.373 22.6439 93.0518 22.6439 93.889C22.6439 94.7263 23.3203 95.405 24.1546 95.405Z" fill="#F2F2F2"/>
</g>
</svg>
