<?xml version="1.0" standalone="no"?>
<!DOCTYPE svg PUBLIC "-//W3C//DTD SVG 20010904//EN"
 "http://www.w3.org/TR/2001/REC-SVG-20010904/DTD/svg10.dtd">
<svg version="1.0" xmlns="http://www.w3.org/2000/svg"
 width="200.000000pt" height="200.000000pt" viewBox="0 0 200.000000 200.000000"
 preserveAspectRatio="xMidYMid meet">

<g transform="translate(0.000000,200.000000) scale(0.100000,-0.100000)"
fill="#000000" stroke="none">
<path d="M0 1000 l0 -1000 1000 0 1000 0 0 1000 0 1000 -1000 0 -1000 0 0
-1000z m1173 760 c143 -5 262 -11 265 -14 3 -3 3 -9 -1 -12 -6 -6 -844 -27
-880 -22 -16 2 -6 11 38 36 l60 32 130 -5 c72 -4 246 -10 388 -15z m2 -191
c270 -6 494 -15 499 -20 5 -5 7 -12 3 -15 -6 -6 -1349 -36 -1354 -30 -2 1 12
22 29 46 l32 43 150 -6 c83 -4 372 -12 641 -18z m30 -209 c297 -6 555 -10 573
-10 20 0 32 -5 32 -14 0 -11 -87 -15 -487 -21 -269 -4 -625 -10 -793 -14 -168
-4 -310 -5 -317 -3 -9 3 -7 15 8 44 l20 39 212 -6 c117 -3 455 -10 752 -15z
m-881 -156 c10 -4 16 -18 16 -40 l0 -34 -90 0 c-97 0 -100 2 -80 54 9 24 14
26 74 26 35 0 71 -3 80 -6z m276 -146 c30 -76 57 -138 61 -138 4 0 31 62 61
138 l54 137 84 0 85 0 0 -30 c0 -23 -5 -31 -22 -33 -23 -3 -23 -6 -23 -147 0
-141 0 -144 23 -147 17 -2 22 -10 22 -33 l0 -30 -87 -3 -88 -3 0 36 c0 28 4
35 20 35 19 0 20 7 20 107 0 60 -4 103 -9 98 -4 -6 -27 -62 -51 -125 -55 -149
-55 -150 -89 -150 -28 0 -31 5 -80 130 -28 71 -51 134 -51 140 0 5 -5 10 -10
10 -7 0 -10 -37 -8 -102 3 -98 4 -103 26 -106 18 -3 22 -10 22 -38 l0 -34 -90
0 -90 0 0 35 c0 28 4 35 20 35 19 0 20 7 20 145 0 138 -1 145 -20 145 -16 0
-20 7 -20 35 l0 36 83 -3 82 -3 55 -137z m635 130 c54 -24 70 -98 34 -157 -18
-31 -19 -35 -5 -43 9 -5 23 -22 31 -38 35 -68 3 -152 -65 -170 -22 -6 -90 -9
-152 -8 l-113 3 -3 32 c-3 26 1 32 20 35 23 3 23 5 26 145 3 141 2 142 -20
145 -18 2 -24 10 -26 36 l-3 32 125 0 c76 0 135 -5 151 -12z m415 -53 l0 -65
-39 0 c-36 0 -40 3 -43 28 -3 25 -7 27 -55 30 l-53 3 0 -55 0 -56 65 0 65 0 0
-30 0 -30 -65 0 -65 0 0 -61 0 -60 53 3 c48 3 52 5 55 31 3 24 7 27 43 27 l39
0 0 -65 0 -65 -162 2 -163 3 -3 33 c-3 29 -1 32 22 32 l26 0 0 144 c0 142 0
145 -22 148 -23 3 -34 28 -24 54 4 11 35 14 166 14 l160 0 0 -65z m160 25
c-80 -11 -120 -11 -120 0 0 6 35 9 88 9 84 -2 85 -2 32 -9z m-1470 -170 l0
-40 -95 0 -95 0 0 40 0 40 95 0 95 0 0 -40z m1505 1 c32 -7 21 -9 -57 -10 -60
-1 -98 3 -98 9 0 12 98 12 155 1z m-1505 -171 l0 -40 -75 0 -76 0 -14 32 c-7
18 -11 36 -9 40 3 5 43 8 90 8 l84 0 0 -40z m1475 0 c22 -6 9 -8 -47 -9 -46
-1 -78 3 -78 9 0 11 80 11 125 0z m-761 -150 c575 -11 752 -18 739 -30 -4 -5
-244 -13 -533 -19 -289 -6 -633 -14 -765 -17 l-240 -7 -17 37 c-10 20 -18 39
-18 41 0 8 265 6 834 -5z m224 -186 c289 -5 402 -10 399 -18 -5 -16 -176 -23
-772 -35 l-510 -10 -32 31 c-18 18 -33 36 -33 41 0 6 104 7 273 3 149 -3 453
-9 675 -12z m-3 -192 c163 -6 187 -9 167 -20 -16 -9 -131 -17 -400 -26 l-377
-13 -62 30 c-34 16 -61 32 -59 36 5 7 458 3 731 -7z"/>
<path d="M1100 1080 l0 -50 38 0 c43 0 72 23 72 56 0 31 -20 44 -67 44 l-43 0
0 -50z"/>
<path d="M1100 899 l0 -62 45 5 c55 7 75 22 75 58 0 38 -29 60 -78 60 l-42 0
0 -61z"/>
</g>
</svg>
