<svg width="173" height="132" viewBox="0 0 173 132" fill="none" xmlns="http://www.w3.org/2000/svg">
<g id="undraw_Mobile_pay_re_sjb8 2">
<path id="Vector" d="M85.1387 29.991H84.4233V10.9946C84.4233 8.07867 83.2281 5.28214 81.1006 3.22025C78.9732 1.15836 76.0877 3.63597e-06 73.079 0H31.5526C30.0629 -5.1437e-06 28.5877 0.284374 27.2113 0.8369C25.835 1.38943 24.5844 2.19928 23.531 3.22022C22.4776 4.24116 21.642 5.45319 21.0719 6.78712C20.5018 8.12104 20.2083 9.55073 20.2083 10.9946V115.21C20.2083 116.654 20.5017 118.084 21.0718 119.418C21.6419 120.752 22.4775 121.964 23.531 122.985C24.5844 124.006 25.8349 124.816 27.2113 125.368C28.5876 125.921 30.0628 126.205 31.5526 126.205H73.079C74.5687 126.205 76.0439 125.921 77.4202 125.368C78.7966 124.816 80.0472 124.006 81.1006 122.985C82.154 121.964 82.9896 120.752 83.5597 119.418C84.1298 118.084 84.4233 116.654 84.4233 115.21V43.513H85.1387V29.991Z" fill="#3F3D56"/>
<path id="Vector_2" d="M73.4512 3.12012H68.0307C68.28 3.71243 68.3751 4.35506 68.3078 4.99141C68.2404 5.62776 68.0126 6.2383 67.6445 6.76923C67.2763 7.30016 66.7791 7.73519 66.1966 8.03601C65.6141 8.33682 64.9642 8.49419 64.3042 8.49423H40.5142C39.8542 8.49418 39.2043 8.33682 38.6218 8.03601C38.0393 7.73519 37.5421 7.30016 37.1739 6.76923C36.8058 6.23829 36.578 5.62776 36.5106 4.99142C36.4433 4.35507 36.5384 3.71243 36.7877 3.12012H31.7249C29.478 3.12012 27.3232 3.98516 25.7344 5.52495C24.1457 7.06474 23.2531 9.15315 23.2531 11.3308V115.394C23.2531 116.472 23.4722 117.54 23.898 118.536C24.3237 119.532 24.9478 120.437 25.7344 121.199C26.5211 121.962 27.455 122.567 28.4829 122.979C29.5107 123.392 30.6123 123.604 31.7249 123.604H73.4512C75.6981 123.604 77.8529 122.739 79.4417 121.199C81.0304 119.66 81.923 117.571 81.923 115.394V11.3308C81.923 10.2525 81.7039 9.18485 81.2781 8.18868C80.8524 7.19252 80.2284 6.28739 79.4417 5.52496C78.655 4.76253 77.7211 4.15774 76.6933 3.74511C75.6654 3.33249 74.5638 3.12012 73.4513 3.12012H73.4512ZM72.5406 51.3956C72.5389 51.9591 72.3071 52.4991 71.896 52.8976C71.4848 53.296 70.9277 53.5206 70.3462 53.5223H59.7401C59.1587 53.5206 58.6015 53.296 58.1904 52.8976C57.7792 52.4991 57.5475 51.9591 57.5458 51.3956V50.8639C57.5475 50.3003 57.7792 49.7604 58.1904 49.3619C58.6015 48.9634 59.1587 48.7388 59.7401 48.7372H70.3462C70.9277 48.7388 71.4848 48.9634 71.896 49.3619C72.3071 49.7604 72.5389 50.3003 72.5406 50.8639V51.3956ZM73.7292 42.0025C73.7275 42.566 73.4957 43.106 73.0846 43.5045C72.6734 43.903 72.1163 44.1276 71.5348 44.1292H33.4992C32.9178 44.1276 32.3606 43.903 31.9495 43.5045C31.5383 43.106 31.3066 42.566 31.3049 42.0025V41.4708C31.3066 40.9073 31.5383 40.3673 31.9495 39.9688C32.3606 39.5704 32.9178 39.3458 33.4992 39.3441H71.5348C72.1163 39.3458 72.6734 39.5704 73.0846 39.9688C73.4957 40.3673 73.7275 40.9073 73.7292 41.4708V42.0025ZM73.7292 32.6095C73.7275 33.173 73.4957 33.713 73.0846 34.1115C72.6734 34.51 72.1163 34.7346 71.5348 34.7362H33.4992C32.9178 34.7346 32.3606 34.51 31.9495 34.1115C31.5383 33.713 31.3066 33.173 31.3049 32.6095V32.0778C31.3066 31.5143 31.5383 30.9743 31.9495 30.5758C32.3606 30.1773 32.9178 29.9527 33.4992 29.9511H71.5348C72.1163 29.9527 72.6734 30.1773 73.0846 30.5758C73.4957 30.9743 73.7275 31.5143 73.7292 32.0778V32.6095ZM73.7292 23.2164C73.7275 23.78 73.4957 24.3199 73.0846 24.7184C72.6734 25.1169 72.1163 25.3415 71.5348 25.3432H33.4992C32.9178 25.3415 32.3606 25.1169 31.9495 24.7184C31.5383 24.3199 31.3066 23.78 31.3049 23.2164V22.6847C31.3066 22.1212 31.5383 21.5812 31.9495 21.1827C32.3606 20.7843 32.9178 20.5597 33.4992 20.558H71.5348C72.1163 20.5597 72.6734 20.7843 73.0846 21.1827C73.4957 21.5812 73.7275 22.1212 73.7292 22.6847V23.2164Z" fill="white"/>
<path id="Vector_3" d="M34.3222 43.0661C35.0291 43.0661 35.6022 42.5107 35.6022 41.8255C35.6022 41.1404 35.0291 40.585 34.3222 40.585C33.6152 40.585 33.0421 41.1404 33.0421 41.8255C33.0421 42.5107 33.6152 43.0661 34.3222 43.0661Z" fill="white"/>
<path id="Vector_4" d="M38.528 43.0661C39.2349 43.0661 39.808 42.5107 39.808 41.8255C39.808 41.1404 39.2349 40.585 38.528 40.585C37.821 40.585 37.2479 41.1404 37.2479 41.8255C37.2479 42.5107 37.821 43.0661 38.528 43.0661Z" fill="white"/>
<path id="Vector_5" d="M42.7338 43.0661C43.4408 43.0661 44.0139 42.5107 44.0139 41.8255C44.0139 41.1404 43.4408 40.585 42.7338 40.585C42.0269 40.585 41.4538 41.1404 41.4538 41.8255C41.4538 42.5107 42.0269 43.0661 42.7338 43.0661Z" fill="white"/>
<path id="Vector_6" d="M46.9397 43.0661C47.6467 43.0661 48.2198 42.5107 48.2198 41.8255C48.2198 41.1404 47.6467 40.585 46.9397 40.585C46.2328 40.585 45.6597 41.1404 45.6597 41.8255C45.6597 42.5107 46.2328 43.0661 46.9397 43.0661Z" fill="white"/>
<path id="Vector_7" d="M60.6544 52.4587C61.3614 52.4587 61.9345 51.9033 61.9345 51.2181C61.9345 50.533 61.3614 49.9775 60.6544 49.9775C59.9475 49.9775 59.3744 50.533 59.3744 51.2181C59.3744 51.9033 59.9475 52.4587 60.6544 52.4587Z" fill="white"/>
<path id="Vector_8" d="M64.8603 52.4587C65.5673 52.4587 66.1404 51.9033 66.1404 51.2181C66.1404 50.533 65.5673 49.9775 64.8603 49.9775C64.1534 49.9775 63.5803 50.533 63.5803 51.2181C63.5803 51.9033 64.1534 52.4587 64.8603 52.4587Z" fill="white"/>
<path id="Vector_9" d="M69.0662 52.4587C69.7731 52.4587 70.3462 51.9033 70.3462 51.2181C70.3462 50.533 69.7731 49.9775 69.0662 49.9775C68.3592 49.9775 67.7861 50.533 67.7861 51.2181C67.7861 51.9033 68.3592 52.4587 69.0662 52.4587Z" fill="white"/>
<path id="Vector_10" d="M74.0235 67.293H30.6449C29.6258 67.293 28.6484 67.6853 27.9278 68.3837C27.2071 69.0822 26.8023 70.0294 26.8023 71.0171V91.5006C26.8023 92.4883 27.2071 93.4356 27.9278 94.134C28.6484 94.8324 29.6258 95.2247 30.6449 95.2247H74.0235C75.0426 95.2247 76.0199 94.8324 76.7406 94.134C77.4612 93.4356 77.866 92.4883 77.866 91.5006V71.0171C77.866 70.0294 77.4612 69.0822 76.7406 68.3837C76.02 67.6853 75.0426 67.293 74.0235 67.293H74.0235ZM29.5716 69.8334C29.6573 69.8184 31.6885 69.4834 33.3705 70.4643C35.0523 71.445 35.6986 73.3414 35.7252 73.4215L35.7932 73.626L35.5749 73.6635C35.2635 73.7107 34.9487 73.7331 34.6336 73.7305C33.6338 73.7491 32.6472 73.5081 31.776 73.0325C30.0941 72.052 29.448 70.1556 29.4214 70.0754L29.3534 69.8709L29.5716 69.8334ZM38.988 88.851H31.251C30.6868 88.851 30.1456 88.6338 29.7466 88.2471C29.3476 87.8604 29.1234 87.3359 29.1234 86.789C29.1234 86.2421 29.3476 85.7176 29.7466 85.3309C30.1456 84.9442 30.6868 84.7269 31.251 84.7269H38.988C39.5523 84.7269 40.0934 84.9442 40.4925 85.3309C40.8915 85.7176 41.1156 86.2421 41.1156 86.789C41.1156 87.3359 40.8915 87.8604 40.4925 88.2471C40.0934 88.6338 39.5523 88.851 38.988 88.851ZM74.191 88.4761C74.1892 89.0722 73.9441 89.6434 73.5092 90.0649C73.0743 90.4864 72.4849 90.7239 71.8699 90.7257H66.0672C65.4522 90.7239 64.8629 90.4864 64.428 90.0649C63.9931 89.6434 63.7479 89.0722 63.7461 88.4761V85.1018C63.7479 84.5057 63.9931 83.9346 64.428 83.5131C64.8629 83.0916 65.4522 82.854 66.0672 82.8523H71.8699C72.4849 82.854 73.0743 83.0916 73.5092 83.5131C73.9441 83.9346 74.1892 84.5057 74.191 85.1018L74.191 88.4761Z" fill="#F9A826"/>
<path id="Vector_11" d="M67.9381 87.7803H65.605C65.4384 87.7803 65.2786 87.8444 65.1608 87.9586C65.043 88.0728 64.9769 88.2276 64.9769 88.3891C64.9769 88.5505 65.043 88.7054 65.1608 88.8195C65.2786 88.9337 65.4384 88.9978 65.605 88.9978H67.9381C68.1047 88.9978 68.2645 88.9337 68.3823 88.8195C68.5001 88.7054 68.5663 88.5505 68.5663 88.3891C68.5663 88.2276 68.5001 88.0728 68.3823 87.9586C68.2645 87.8444 68.1047 87.7803 67.9381 87.7803Z" fill="#3F3D56"/>
<path id="Vector_12" d="M72.2454 87.7803H69.9123C69.7457 87.7803 69.586 87.8444 69.4682 87.9586C69.3504 88.0728 69.2842 88.2276 69.2842 88.3891C69.2842 88.5505 69.3504 88.7054 69.4682 88.8195C69.586 88.9337 69.7457 88.9978 69.9123 88.9978H72.2454C72.412 88.9978 72.5718 88.9337 72.6896 88.8195C72.8074 88.7054 72.8736 88.5505 72.8736 88.3891C72.8736 88.2276 72.8074 88.0728 72.6896 87.9586C72.5718 87.8444 72.412 87.7803 72.2454 87.7803Z" fill="#3F3D56"/>
<path id="Vector_13" d="M67.9378 86.0625H65.6047C65.4381 86.0625 65.2783 86.1266 65.1605 86.2408C65.0427 86.355 64.9766 86.5098 64.9766 86.6713C64.9766 86.8327 65.0427 86.9876 65.1605 87.1018C65.2783 87.2159 65.4381 87.2801 65.6047 87.2801H67.9378C68.1044 87.2801 68.2642 87.2159 68.382 87.1018C68.4998 86.9876 68.566 86.8327 68.566 86.6713C68.566 86.5098 68.4998 86.355 68.382 86.2408C68.2642 86.1266 68.1044 86.0625 67.9378 86.0625Z" fill="#3F3D56"/>
<path id="Vector_14" d="M72.2451 86.0625H69.912C69.7454 86.0625 69.5856 86.1266 69.4678 86.2408C69.35 86.355 69.2838 86.5098 69.2838 86.6713C69.2838 86.8327 69.35 86.9876 69.4678 87.1018C69.5856 87.2159 69.7454 87.2801 69.912 87.2801H72.2451C72.4117 87.2801 72.5714 87.2159 72.6892 87.1018C72.807 86.9876 72.8732 86.8327 72.8732 86.6713C72.8732 86.5098 72.807 86.355 72.6892 86.2408C72.5714 86.1266 72.4117 86.0625 72.2451 86.0625H72.2451Z" fill="#3F3D56"/>
<path id="Vector_15" d="M67.9378 84.3779H65.6047C65.4381 84.3779 65.2783 84.4421 65.1605 84.5562C65.0427 84.6704 64.9766 84.8252 64.9766 84.9867C64.9766 85.1482 65.0427 85.303 65.1605 85.4172C65.2783 85.5314 65.4381 85.5955 65.6047 85.5955H67.9378C68.1044 85.5955 68.2642 85.5314 68.382 85.4172C68.4998 85.303 68.566 85.1482 68.566 84.9867C68.566 84.8252 68.4998 84.6704 68.382 84.5562C68.2642 84.4421 68.1044 84.3779 67.9378 84.3779Z" fill="#3F3D56"/>
<path id="Vector_16" d="M72.2451 84.3779H69.912C69.7454 84.3779 69.5856 84.4421 69.4678 84.5562C69.35 84.6704 69.2838 84.8252 69.2838 84.9867C69.2838 85.1482 69.35 85.303 69.4678 85.4172C69.5856 85.5314 69.7454 85.5955 69.912 85.5955H72.2451C72.4117 85.5955 72.5714 85.5314 72.6892 85.4172C72.807 85.303 72.8732 85.1482 72.8732 84.9867C72.8732 84.8252 72.807 84.6704 72.6892 84.5562C72.5714 84.4421 72.4117 84.3779 72.2451 84.3779H72.2451Z" fill="#3F3D56"/>
<path id="Vector_17" d="M104.068 75.0088H98.41V80.4925H104.068V75.0088Z" fill="#E6E6E6"/>
<path id="Vector_18" d="M91.7416 78.3379H101.037V87.3468H91.7416V78.3379ZM100.633 78.7296H92.1457V86.9551H100.633V78.7296Z" fill="#3F3D56"/>
<path id="Vector_19" d="M5.65807 29.7686H0V35.2522H5.65807V29.7686Z" fill="#E6E6E6"/>
<path id="Vector_20" d="M12.3265 31.923H3.03113V22.9141H12.3265V31.923ZM3.43528 31.5313H11.9224V23.3058H3.43528V31.5313Z" fill="#3F3D56"/>
</g>
</svg>
