<svg width="68" height="68" viewBox="0 0 68 68" fill="none" xmlns="http://www.w3.org/2000/svg">
<path d="M31.4898 0.265617C29.4977 0.796867 27.4258 2.13828 26.35 3.55937L25.8852 4.19687L19.3508 4.96718C15.7516 5.39218 12.6969 5.8039 12.5508 5.88359C12.1391 6.09609 11.9664 6.40156 11.9531 6.87968C11.9531 7.30468 12.6703 13.7328 12.8031 14.4898C12.8695 14.8219 12.843 14.8484 12.2188 14.9016C11.8602 14.9414 11.475 15.0476 11.3555 15.1406C11.2359 15.2336 10.3195 16.6945 9.29688 18.3945L7.45078 21.4758L6.30859 43.5227C5.68437 55.6484 5.17969 65.9945 5.17969 66.4992C5.17969 67.2961 5.21953 67.4687 5.48516 67.7078L5.79063 68H34.0133H62.2492L62.5281 67.6945C62.7672 67.4422 62.8203 67.2297 62.8203 66.4727C62.8203 65.9812 62.3156 55.6484 61.6914 43.5227L60.5492 21.4758L58.7031 18.3945C57.6805 16.6945 56.7508 15.2336 56.6313 15.1273C56.4852 15.0078 55.9805 14.9281 55.2234 14.8883C54.0813 14.8484 54.0281 14.8352 54.1078 14.5562C54.1477 14.4102 54.3469 13.5734 54.5461 12.7234C54.9313 11.0234 54.8914 10.7047 54.2938 10.3062C54.1211 10.2 51.7703 9.58906 49.0742 8.96484C46.3648 8.34062 44.0273 7.76952 43.8813 7.7164C43.6953 7.63671 43.5625 7.42421 43.5094 7.11874C43.3633 6.32187 42.2875 4.35624 41.4773 3.38671C40.468 2.17812 38.7016 0.982803 37.1742 0.464836C36.2047 0.132805 35.8195 0.0796814 34.2656 0.0398407C32.7914 0.0132751 32.3 0.0531158 31.4898 0.265617ZM35.7133 2.60312C37.5594 3.05468 39.4188 4.46249 40.4016 6.12265C40.6805 6.57421 40.8797 6.97265 40.8531 6.99921C40.8266 7.02578 40.1758 6.89296 39.3922 6.70702C37.8914 6.33515 37.3734 6.34843 37.0016 6.76015C36.8953 6.87968 36.55 8.03515 36.2578 9.31015C35.9523 10.5719 35.6867 11.7273 35.6469 11.8469C35.5938 12.0328 34.6906 12.4312 34.5844 12.3117C34.5711 12.2984 34.332 10.4656 34.0664 8.24765C33.8141 6.02968 33.5352 4.11718 33.482 3.99765C33.2031 3.47968 32.7516 3.39999 31.3172 3.55937C30.5734 3.65234 29.9492 3.69218 29.9094 3.65234C29.8031 3.54609 31.5961 2.74921 32.3398 2.57655C33.2961 2.33749 34.7039 2.35078 35.7133 2.60312ZM31.3438 6.02968C31.3438 6.05624 31.5297 7.58359 31.7422 9.42968C31.968 11.2758 32.1008 12.8297 32.0477 12.8828C31.9945 12.9359 29.5242 13.5602 26.5625 14.2641C22.4719 15.2469 21.1172 15.6187 20.8914 15.8312C20.4797 16.2164 20.493 16.7609 20.9844 18.7531C21.2102 19.643 21.3828 20.4531 21.3828 20.5461C21.3828 20.6789 20.7852 20.7187 18.6867 20.7187H15.9906L15.2469 14.3703C14.8352 10.8906 14.5031 8.02187 14.5164 8.02187C14.5297 8.00859 18.275 7.54374 22.8438 6.99921C27.4125 6.45468 31.1844 6.00312 31.2508 5.98984C31.3039 5.98984 31.3438 6.00312 31.3438 6.02968ZM46.0195 10.7711C49.2336 11.5148 51.9164 12.1656 51.9828 12.232C52.0625 12.2984 51.7172 14.0117 51.1328 16.5352L50.15 20.7187H46.8828H43.6156L42.5266 16.1633C41.5703 12.1656 41.3977 11.5812 41.1055 11.3156C40.6938 10.9703 40.2422 10.9437 39.1531 11.2359C38.7148 11.3422 38.343 11.4219 38.3164 11.3953C38.3031 11.3687 38.4094 10.8375 38.5555 10.2133L38.8211 9.07109L39.4984 9.24374C39.8703 9.33671 42.8055 10.0141 46.0195 10.7711ZM39.4453 13.7727C39.4453 13.8391 39.8039 15.3664 40.2422 17.1859C40.6805 18.9922 41.0391 20.5328 41.0391 20.5992C41.0391 20.6656 37.3734 20.7187 32.4992 20.7187H23.9727L23.6008 19.1648C23.4016 18.3148 23.2555 17.6109 23.282 17.5844C23.3086 17.5711 39.1398 13.7195 39.3523 13.693C39.4055 13.693 39.4453 13.7195 39.4453 13.7727ZM13.1484 17.518C13.1484 17.6375 13.3344 19.0984 13.4805 20.2141L13.5469 20.7187H12.2188C11.4883 20.7187 10.8906 20.6789 10.8906 20.6391C10.8906 20.4 12.8164 17.3984 12.9625 17.3984C13.0688 17.3984 13.1484 17.4516 13.1484 17.518ZM56.1664 18.9789C56.6844 19.8555 57.1094 20.5992 57.1094 20.6391C57.1094 20.6789 56.1266 20.7187 54.918 20.7187C53.7094 20.7187 52.7266 20.6789 52.7266 20.6125C52.7266 20.5594 52.8859 19.8156 53.0852 18.9523L53.4438 17.3984H54.3336H55.2102L56.1664 18.9789ZM58.225 23.9328C58.2648 24.3977 58.7563 33.668 59.3008 44.5586C59.8453 55.4492 60.3102 64.6266 60.3367 64.9719L60.3898 65.6094H34H7.61016L7.66328 64.9719C7.68984 64.6266 8.15469 55.4492 8.69922 44.5586C9.24375 33.668 9.73516 24.3977 9.775 23.9328L9.85469 23.1094H34H58.1453L58.225 23.9328Z" fill="#E9AF00"/>
<path d="M24.5703 25.3805C22.3391 25.8055 21.1172 28.6742 22.3258 30.6266C22.6445 31.1445 23.4149 31.8484 23.8399 32.0078C24.1453 32.1274 24.1453 32.1406 24.1984 35.2219C24.2516 38.1836 24.2649 38.3563 24.6234 39.3789C25.7524 42.6727 28.4086 45.1164 31.7156 45.9133C32.8844 46.1922 35.1156 46.1922 36.2844 45.9133C39.5914 45.1164 42.2477 42.6727 43.3766 39.3789C43.7352 38.3563 43.7485 38.1836 43.8016 35.2352L43.8547 32.1406L44.3063 31.9281C44.8641 31.6625 45.6477 30.7992 45.9133 30.1617C46.232 29.4313 46.1922 28.05 45.8336 27.3195C45.4883 26.6156 44.6781 25.832 43.9742 25.5399C43.3633 25.2742 41.9024 25.2742 41.2914 25.5399C38.6485 26.6422 38.436 30.6 40.9461 31.9016L41.4641 32.1539L41.411 34.9031C41.3445 38.0508 41.1852 38.768 40.2422 40.2156C37.2539 44.8508 30.7461 44.8508 27.7578 40.2156C26.8149 38.768 26.6555 38.0375 26.5891 34.9031L26.5359 32.1539L27.0539 31.9016C28.1828 31.3172 28.807 30.2149 28.8203 28.8203C28.8203 26.4961 26.8945 24.9422 24.5703 25.3805Z" fill="#E9AF00"/>
</svg>
