<svg width="155" height="123" viewBox="0 0 155 123" fill="none" xmlns="http://www.w3.org/2000/svg">
<g id="undraw_stepping_up_g6oo 1" clip-path="url(#clip0_660_996)">
<path id="Vector" d="M115.378 121.522C113.247 119.712 111.952 116.852 112.291 114.067C112.631 111.283 114.734 108.723 117.462 108.132C120.19 107.541 123.3 109.178 124.128 111.856C124.584 106.692 125.11 101.311 127.841 96.9134C130.315 92.9312 134.599 90.0818 139.242 89.572C143.884 89.0623 148.773 90.9876 151.668 94.671C154.564 98.3544 155.273 103.709 153.245 107.938C151.751 111.053 148.998 113.372 146.115 115.258C136.796 121.301 125.62 123.759 114.642 122.179" fill="#F2F2F2"/>
<path id="Vector_2" d="M147.077 91.0944C143.246 94.2308 139.732 97.7386 136.585 101.567C131.659 107.538 127.674 114.233 124.767 121.418C124.554 121.942 125.401 122.17 125.611 121.652C130.368 109.975 137.961 99.6826 147.696 91.7168C148.133 91.359 147.511 90.7395 147.077 91.0944Z" fill="white"/>
<path id="Vector_3" d="M38.1511 122.762H26.062C25.6535 122.761 25.2619 122.598 24.973 122.308C24.6842 122.017 24.5217 121.624 24.5212 121.213V95.9569C24.5217 95.5463 24.6842 95.1527 24.973 94.8623C25.2619 94.572 25.6535 94.4087 26.062 94.4082H38.1511C38.5596 94.4087 38.9512 94.572 39.2401 94.8623C39.5289 95.1527 39.6914 95.5463 39.6919 95.9569V121.213C39.6914 121.624 39.5289 122.017 39.2401 122.308C38.9512 122.598 38.5596 122.761 38.1511 122.762Z" fill="#F9A826"/>
<path id="Vector_4" d="M66.8331 123H54.744C54.2727 123 53.8208 122.811 53.4875 122.476C53.1542 122.141 52.9667 121.687 52.9662 121.213V72.1307C52.9667 71.657 53.1542 71.2027 53.4875 70.8677C53.8208 70.5327 54.2727 70.3443 54.744 70.3438H66.8331C67.3044 70.3443 67.7563 70.5327 68.0896 70.8677C68.4229 71.2027 68.6104 71.657 68.6109 72.1307V121.213C68.6104 121.687 68.4229 122.141 68.0896 122.476C67.7563 122.811 67.3044 123 66.8331 123ZM54.744 70.8203C54.3983 70.8207 54.067 70.9589 53.8226 71.2045C53.5781 71.4502 53.4407 71.7833 53.4403 72.1307V121.213C53.4407 121.561 53.5781 121.894 53.8226 122.14C54.067 122.385 54.3983 122.523 54.744 122.524H66.8331C67.1787 122.523 67.5101 122.385 67.7545 122.14C67.999 121.894 68.1364 121.561 68.1368 121.213V72.1307C68.1364 71.7833 67.999 71.4502 67.7545 71.2045C67.5101 70.9589 67.1787 70.8207 66.8331 70.8203H54.744Z" fill="#3F3D56"/>
<path id="Vector_5" d="M95.5151 123H83.426C82.9547 123 82.5028 122.811 82.1695 122.476C81.8362 122.141 81.6487 121.687 81.6482 121.213V40.9178C81.6487 40.4441 81.8362 39.9898 82.1695 39.6548C82.5028 39.3198 82.9547 39.1314 83.426 39.1309H95.5151C95.9865 39.1314 96.4384 39.3198 96.7716 39.6548C97.1049 39.9898 97.2924 40.4441 97.2929 40.9178V121.213C97.2924 121.687 97.1049 122.141 96.7716 122.476C96.4384 122.811 95.9865 123 95.5151 123ZM83.426 39.6074C83.0804 39.6078 82.749 39.746 82.5046 39.9916C82.2601 40.2373 82.1227 40.5704 82.1223 40.9178V121.213C82.1227 121.561 82.2601 121.894 82.5046 122.139C82.749 122.385 83.0804 122.523 83.426 122.524H95.5151C95.8608 122.523 96.1921 122.385 96.4366 122.139C96.681 121.894 96.8184 121.561 96.8188 121.213V40.9178C96.8184 40.5704 96.681 40.2373 96.4366 39.9916C96.1921 39.746 95.8608 39.6078 95.5151 39.6074H83.426Z" fill="#3F3D56"/>
<path id="Vector_6" d="M124.465 122.881H112.376C111.967 122.88 111.576 122.717 111.287 122.427C110.998 122.136 110.836 121.743 110.835 121.332V8.15615C110.836 7.74554 110.998 7.3519 111.287 7.06156C111.576 6.77122 111.967 6.6079 112.376 6.60742H124.465C124.873 6.6079 125.265 6.77122 125.554 7.06156C125.843 7.3519 126.005 7.74554 126.006 8.15615V121.332C126.005 121.743 125.843 122.136 125.554 122.427C125.265 122.717 124.873 122.88 124.465 122.881Z" fill="#F9A826"/>
</g>
<defs>
<clipPath id="clip0_660_996">
<rect width="154" height="123" fill="white" transform="translate(0.5)"/>
</clipPath>
</defs>
</svg>
