<svg width="159" height="95" viewBox="0 0 159 95" fill="none" xmlns="http://www.w3.org/2000/svg">
<g id="undraw_text_files_au1q 1" clip-path="url(#clip0_660_974)">
<path id="Vector" d="M159 74.1343C159.003 74.7705 158.752 75.382 158.301 75.8343C157.85 76.2865 157.236 76.5425 156.595 76.5458H50.7863C50.1452 76.5425 49.5316 76.2866 49.0806 75.8343C48.6296 75.3821 48.3781 74.7706 48.3814 74.1343V2.41156C48.3781 1.7753 48.6296 1.16378 49.0806 0.711524C49.5316 0.25927 50.1451 0.00332693 50.7863 0H156.595C157.236 0.0033096 157.85 0.259237 158.301 0.711479C158.752 1.16372 159.003 1.77523 159 2.41149V74.1343Z" fill="#E6E6E6"/>
<path id="Vector_2" d="M157.752 72.9598C157.752 73.5782 157.504 74.1713 157.064 74.6086C156.623 75.0459 156.025 75.2916 155.402 75.2916H52.0518C51.4286 75.2916 50.831 75.0459 50.3903 74.6086C49.9496 74.1713 49.7021 73.5782 49.7021 72.9598V3.6189C49.7021 3.00047 49.9496 2.40737 50.3903 1.97008C50.831 1.53278 51.4286 1.28711 52.0518 1.28711H155.407C156.029 1.28835 156.626 1.53457 157.065 1.97173C157.505 2.40889 157.752 3.00129 157.752 3.6189V72.9598Z" fill="white"/>
<path id="b9c54412-061c-4155-b289-fb4c23e4a64e" d="M55.2258 4.29785H152.338C152.708 4.29785 153.063 4.44367 153.325 4.70323C153.586 4.9628 153.733 5.31484 153.733 5.68191V70.6282C153.733 70.9952 153.586 71.3473 153.325 71.6068C153.063 71.8664 152.708 72.0122 152.338 72.0122H55.2258C55.0426 72.0122 54.8612 71.9764 54.692 71.9069C54.5228 71.8373 54.3691 71.7354 54.2396 71.6068C54.11 71.4783 54.0073 71.3258 53.9372 71.1578C53.8671 70.9899 53.8311 70.8099 53.8311 70.6282V5.68191C53.8311 5.50016 53.8671 5.32018 53.9372 5.15226C54.0073 4.98433 54.11 4.83176 54.2396 4.70323C54.3691 4.57471 54.5228 4.47276 54.692 4.40321C54.8612 4.33365 55.0426 4.29785 55.2258 4.29785Z" fill="#E6E6E6"/>
<path id="Vector_3" d="M56.455 5.85547H151.004C151.374 5.85547 151.728 6.00129 151.99 6.26085C152.251 6.52041 152.398 6.87246 152.398 7.23953V68.7201C152.398 69.0872 152.251 69.4393 151.99 69.6988C151.728 69.9584 151.374 70.1042 151.004 70.1042H56.455C56.0851 70.1042 55.7304 69.9584 55.4688 69.6988C55.2072 69.4393 55.0603 69.0872 55.0603 68.7201V7.23953C55.0603 6.87246 55.2072 6.52041 55.4688 6.26085C55.7304 6.00129 56.0851 5.85547 56.455 5.85547Z" fill="white"/>
<path id="Vector_4" d="M134.573 82.7358C134.576 83.3721 134.325 83.9836 133.874 84.4359C133.423 84.8881 132.809 85.1441 132.168 85.1474H26.3593C26.0418 85.1458 25.7278 85.0821 25.4351 84.96C25.1424 84.8379 24.8769 84.6599 24.6535 84.4359C24.4302 84.212 24.2535 83.9466 24.1336 83.6549C24.0136 83.3632 23.9527 83.0509 23.9544 82.7359V11.0131C23.951 10.3769 24.2025 9.76534 24.6535 9.31309C25.1045 8.86083 25.718 8.60489 26.3592 8.60156H132.168C132.809 8.60487 133.423 8.8608 133.874 9.31304C134.325 9.76528 134.576 10.3768 134.573 11.0131V82.7358Z" fill="#E6E6E6"/>
<path id="Vector_5" d="M133.325 81.5613C133.325 82.1797 133.077 82.7729 132.636 83.2101C132.196 83.6474 131.598 83.8931 130.975 83.8931H27.6247C27.0015 83.8931 26.4038 83.6474 25.9632 83.2101C25.5225 82.7729 25.275 82.1797 25.275 81.5613V12.2205C25.275 11.602 25.5225 11.0089 25.9632 10.5716C26.4038 10.1343 27.0015 9.88867 27.6247 9.88867H130.98C131.602 9.88991 132.199 10.1361 132.638 10.5733C133.078 11.0105 133.325 11.6028 133.325 12.2205V81.5613Z" fill="white"/>
<path id="a7242049-80b4-49e1-bd08-67354734c824" d="M30.7986 12.8994H127.911C128.281 12.8994 128.636 13.0452 128.898 13.3048C129.159 13.5644 129.306 13.9164 129.306 14.2835V79.2297C129.306 79.5968 129.159 79.9488 128.898 80.2084C128.636 80.468 128.281 80.6138 127.911 80.6138H30.7986C30.4287 80.6138 30.074 80.468 29.8124 80.2084C29.5509 79.9488 29.4039 79.5968 29.4039 79.2297V14.2835C29.4039 13.9164 29.5509 13.5644 29.8124 13.3048C30.074 13.0452 30.4287 12.8994 30.7986 12.8994Z" fill="#E6E6E6"/>
<path id="Vector_6" d="M32.0279 14.457H126.577C126.946 14.457 127.301 14.6029 127.563 14.8624C127.824 15.122 127.971 15.474 127.971 15.8411V77.3217C127.971 77.6888 127.824 78.0408 127.563 78.3004C127.301 78.56 126.946 78.7058 126.577 78.7058H32.0279C31.658 78.7058 31.3032 78.56 31.0417 78.3004C30.7801 78.0408 30.6332 77.6888 30.6332 77.3217V15.8411C30.6332 15.474 30.7801 15.122 31.0417 14.8624C31.3032 14.6029 31.658 14.457 32.0279 14.457Z" fill="white"/>
<path id="Vector_7" d="M110.619 92.5884C110.622 93.2246 110.37 93.8362 109.919 94.2884C109.468 94.7407 108.855 94.9966 108.214 94.9999H2.40492C1.76377 94.9966 1.1502 94.7407 0.699201 94.2885C0.248197 93.8362 -0.00330049 93.2247 3.3094e-05 92.5884V20.8657C-0.0033194 20.2294 0.248161 19.6179 0.699152 19.1656C1.15014 18.7134 1.7637 18.4574 2.40485 18.4541H108.214C108.531 18.4557 108.845 18.5194 109.138 18.6415C109.43 18.7636 109.696 18.9417 109.919 19.1656C110.143 19.3895 110.319 19.6549 110.439 19.9466C110.559 20.2383 110.62 20.5506 110.619 20.8656V92.5884Z" fill="#E6E6E6"/>
<path id="Vector_8" d="M109.37 91.4139C109.37 92.0323 109.123 92.6254 108.682 93.0627C108.242 93.5 107.644 93.7457 107.021 93.7457H3.67041C3.04722 93.7457 2.44956 93.5 2.0089 93.0627C1.56824 92.6254 1.32068 92.0323 1.32068 91.4139V22.073C1.32068 21.4546 1.56824 20.8615 2.0089 20.4242C2.44956 19.9869 3.04722 19.7412 3.67041 19.7412H107.025C107.648 19.7425 108.244 19.9887 108.684 20.4258C109.124 20.863 109.37 21.4554 109.37 22.073V91.4139Z" fill="white"/>
<path id="b7a050eb-0cb2-44a8-b642-35d340850eff" d="M6.84436 22.752H103.957C104.327 22.752 104.682 22.8978 104.943 23.1573C105.205 23.4169 105.352 23.7689 105.352 24.136V89.0823C105.352 89.4493 105.205 89.8014 104.943 90.061C104.682 90.3205 104.327 90.4663 103.957 90.4663H6.84436C6.47446 90.4663 6.11971 90.3205 5.85815 90.061C5.59659 89.8014 5.44965 89.4493 5.44965 89.0823V24.136C5.44965 23.7689 5.59659 23.4169 5.85815 23.1573C6.11971 22.8978 6.47446 22.752 6.84436 22.752Z" fill="#E6E6E6"/>
<path id="Vector_9" d="M8.0736 24.3096H102.622C102.992 24.3096 103.347 24.4554 103.608 24.715C103.87 24.9745 104.017 25.3266 104.017 25.6936V87.1742C104.017 87.5413 103.87 87.8934 103.608 88.1529C103.347 88.4125 102.992 88.5583 102.622 88.5583H8.0736C7.7037 88.5583 7.34895 88.4125 7.08739 88.1529C6.82584 87.8934 6.67889 87.5413 6.67889 87.1742V25.6936C6.67889 25.3266 6.82584 24.9745 7.08739 24.715C7.34895 24.4554 7.7037 24.3096 8.0736 24.3096Z" fill="white"/>
<path id="Vector_10" d="M77.9464 37.6274V80.1659C77.9462 80.4147 77.8465 80.6533 77.6692 80.8292C77.492 81.0051 77.2516 81.104 77.0008 81.1042H32.0865C31.8358 81.104 31.5954 81.0051 31.4181 80.8292C31.2408 80.6533 31.1411 80.4147 31.1409 80.1659V32.6229C31.1411 32.3741 31.2408 32.1356 31.4181 31.9596C31.5954 31.7837 31.8358 31.6848 32.0865 31.6846H71.3274L77.9464 37.6274Z" fill="#F9A826"/>
<path id="Path 40" d="M39.0894 42.0372C38.9342 42.0398 38.7862 42.1028 38.6774 42.2126C38.5686 42.3225 38.5076 42.4703 38.5076 42.6244C38.5076 42.7784 38.5686 42.9262 38.6774 43.0361C38.7862 43.1459 38.9342 43.2089 39.0894 43.2115H54.6919C54.7698 43.2131 54.8473 43.1994 54.9198 43.1713C54.9924 43.1431 55.0586 43.1009 55.1147 43.0473C55.1708 42.9936 55.2157 42.9295 55.2468 42.8586C55.2779 42.7877 55.2945 42.7114 55.2958 42.634C55.2971 42.5567 55.283 42.4799 55.2542 42.408C55.2255 42.3361 55.1828 42.2706 55.1285 42.2151C55.0742 42.1597 55.0094 42.1154 54.9378 42.0849C54.8662 42.0543 54.7892 42.0381 54.7113 42.0372C54.7048 42.0371 54.6984 42.0371 54.6919 42.0372H39.0894Z" fill="white"/>
<path id="Path 40_2" d="M39.0893 47.545C38.9342 47.5476 38.7862 47.6106 38.6774 47.7204C38.5686 47.8303 38.5076 47.9781 38.5076 48.1322C38.5076 48.2862 38.5686 48.434 38.6774 48.5439C38.7862 48.6537 38.9342 48.7167 39.0893 48.7193H69.9785C70.1351 48.7212 70.286 48.6615 70.3983 48.5533C70.5106 48.4451 70.575 48.2971 70.5776 48.1418C70.5802 47.9864 70.5206 47.8364 70.412 47.7246C70.3034 47.6127 70.1545 47.5482 69.998 47.545C69.9915 47.5449 69.985 47.5449 69.9785 47.545H39.0893Z" fill="white"/>
<path id="Path 40_3" d="M39.0893 53.0538C38.9342 53.0564 38.7862 53.1194 38.6774 53.2292C38.5686 53.3391 38.5076 53.4869 38.5076 53.641C38.5076 53.795 38.5686 53.9428 38.6774 54.0527C38.7862 54.1625 38.9342 54.2255 39.0893 54.2281H69.9785C70.0564 54.2297 70.1338 54.216 70.2064 54.1878C70.2789 54.1596 70.3451 54.1175 70.4012 54.0638C70.4573 54.0101 70.5022 53.946 70.5333 53.8751C70.5643 53.8042 70.581 53.7279 70.5822 53.6506C70.5835 53.5733 70.5694 53.4965 70.5407 53.4247C70.512 53.3528 70.4693 53.2872 70.415 53.2318C70.3607 53.1763 70.2959 53.1321 70.2244 53.1015C70.1528 53.071 70.0758 53.0548 69.9979 53.0538C69.9915 53.0537 69.985 53.0537 69.9785 53.0538H39.0893Z" fill="white"/>
<path id="Path 40_4" d="M39.0894 58.5616C38.9342 58.5642 38.7862 58.6272 38.6774 58.7371C38.5686 58.8469 38.5076 58.9947 38.5076 59.1488C38.5076 59.3028 38.5686 59.4506 38.6774 59.5605C38.7862 59.6703 38.9342 59.7333 39.0894 59.7359H69.9785C70.0564 59.7375 70.1339 59.7238 70.2065 59.6957C70.279 59.6675 70.3453 59.6253 70.4014 59.5717C70.4575 59.518 70.5024 59.4539 70.5335 59.383C70.5645 59.3121 70.5812 59.2358 70.5825 59.1584C70.5837 59.0811 70.5696 59.0043 70.5409 58.9324C70.5122 58.8605 70.4695 58.795 70.4152 58.7395C70.3608 58.6841 70.296 58.6398 70.2244 58.6093C70.1528 58.5787 70.0759 58.5625 69.998 58.5616C69.9915 58.5615 69.985 58.5615 69.9785 58.5616H39.0894Z" fill="white"/>
<path id="Path 40_5" d="M39.0894 64.0694C38.9342 64.072 38.7862 64.135 38.6774 64.2449C38.5686 64.3547 38.5076 64.5026 38.5076 64.6566C38.5076 64.8106 38.5686 64.9585 38.6774 65.0683C38.7862 65.1781 38.9342 65.2411 39.0894 65.2437H69.9785C70.0564 65.2453 70.1339 65.2317 70.2065 65.2035C70.279 65.1753 70.3453 65.1332 70.4014 65.0795C70.4575 65.0258 70.5024 64.9617 70.5335 64.8908C70.5645 64.8199 70.5812 64.7436 70.5825 64.6663C70.5837 64.5889 70.5696 64.5121 70.5409 64.4403C70.5122 64.3684 70.4695 64.3028 70.4152 64.2474C70.3608 64.1919 70.296 64.1476 70.2244 64.1171C70.1528 64.0866 70.0759 64.0704 69.998 64.0694C69.9915 64.0693 69.985 64.0693 69.9785 64.0694H39.0894Z" fill="white"/>
<path id="Path 40_6" d="M39.0894 69.5772C38.9342 69.5798 38.7862 69.6429 38.6774 69.7527C38.5686 69.8625 38.5076 70.0104 38.5076 70.1644C38.5076 70.3184 38.5686 70.4663 38.6774 70.5761C38.7862 70.6859 38.9342 70.7489 39.0894 70.7516H69.9785C70.0564 70.7532 70.1339 70.7395 70.2065 70.7113C70.279 70.6831 70.3453 70.641 70.4014 70.5873C70.4575 70.5337 70.5024 70.4695 70.5335 70.3986C70.5645 70.3277 70.5812 70.2514 70.5825 70.1741C70.5837 70.0968 70.5696 70.02 70.5409 69.9481C70.5122 69.8762 70.4695 69.8106 70.4152 69.7552C70.3608 69.6997 70.296 69.6554 70.2244 69.6249C70.1528 69.5944 70.0759 69.5782 69.998 69.5772C69.9915 69.5771 69.985 69.5771 69.9785 69.5772H39.0894Z" fill="white"/>
<path id="Vector_11" d="M77.9464 37.6275H71.9578C71.7906 37.6275 71.6303 37.5615 71.5121 37.4442C71.3939 37.3269 71.3275 37.1678 71.3275 37.0019V31.6846L77.9464 37.6275Z" fill="#F9A826"/>
<path id="Vector_12" opacity="0.2" d="M77.9464 37.6275H71.9578C71.7906 37.6275 71.6303 37.5615 71.5121 37.4442C71.3939 37.3269 71.3275 37.1678 71.3275 37.0019V31.6846L77.9464 37.6275Z" fill="black"/>
</g>
<defs>
<clipPath id="clip0_660_974">
<rect width="159" height="95" fill="white"/>
</clipPath>
</defs>
</svg>
